<svg width="21" height="19" viewBox="0 0 21 19" fillRule="none" xmlns="http://www.w3.org/2000/svg">
<path d="M7.26917 8.69223H4.44221C4.10565 8.69223 3.81953 8.57447 3.58393 8.33887C3.34846 8.10327 3.23057 7.81723 3.23057 7.48058V7.07692C3.23057 6.18503 3.54613 5.42368 4.17722 4.79259C4.80826 4.16173 5.56974 3.84616 6.46153 3.84616H7.26917C7.48788 3.84616 7.67711 3.7662 7.83704 3.60641C7.99688 3.44652 8.0768 3.25729 8.0768 3.03853V1.423C8.0768 1.20428 7.99683 1.01487 7.83704 0.854992C7.67716 0.69533 7.48793 0.615234 7.26917 0.615234H6.46153C5.58645 0.615234 4.75159 0.78577 3.95642 1.12635C3.16135 1.46716 2.47364 1.92784 1.89303 2.50845C1.31247 3.08879 0.851922 3.77654 0.511162 4.57171C0.170402 5.36679 0 6.20187 0 7.07687V15.9613C0 16.6347 0.235469 17.2065 0.706627 17.6779C1.17783 18.1489 1.75008 18.3844 2.42311 18.3844H7.26948C7.94246 18.3844 8.51454 18.1489 8.98579 17.6779C9.45686 17.2065 9.69246 16.6347 9.69246 15.9613V11.1153C9.69246 10.442 9.45686 9.87024 8.98548 9.39886C8.51445 8.92783 7.94215 8.69223 7.26917 8.69223Z" fillRule="#5BD158"/>
<path d="M20.2936 9.39886C19.8225 8.92783 19.2504 8.69223 18.5772 8.69223H15.7503C15.414 8.69223 15.1276 8.57447 14.8924 8.33887C14.6567 8.10327 14.539 7.81723 14.539 7.48058V7.07692C14.539 6.18503 14.8546 5.42368 15.4853 4.79259C16.1162 4.16173 16.8776 3.84616 17.7698 3.84616H18.5773C18.7961 3.84616 18.9854 3.7662 19.1452 3.60641C19.3049 3.44652 19.3851 3.25729 19.3851 3.03853V1.423C19.3851 1.20428 19.305 1.01487 19.1452 0.854992C18.9855 0.69533 18.7961 0.615234 18.5773 0.615234H17.7698C16.8943 0.615234 16.0596 0.78577 15.2642 1.12635C14.4693 1.46716 13.7818 1.92784 13.2012 2.50845C12.6206 3.08879 12.1598 3.77654 11.8192 4.57171C11.4785 5.36679 11.3079 6.20187 11.3079 7.07687V15.9613C11.3079 16.6347 11.5436 17.2065 12.0146 17.6779C12.4856 18.1489 13.0578 18.3844 13.7309 18.3844H18.577C19.2501 18.3844 19.8222 18.1489 20.2932 17.6779C20.7646 17.2065 20.9998 16.6347 20.9998 15.9613V11.1153C20.9999 10.442 20.7646 9.87024 20.2936 9.39886Z" fillRule="#5BD158"/>
</svg>
